<?xml version="1.0" encoding="UTF-8"?><svg xmlns="http://www.w3.org/2000/svg" xmlns:xlink="http://www.w3.org/1999/xlink" width="375pt" zoomAndPan="magnify" viewBox="0 0 375 374.999991" height="374.999991pt" preserveAspectRatio="xMidYMid meet" version="1.2"><defs><g/><clipPath xml:id="clip1" id="clip1"><path d="M 129 36 L 211 36 L 211 127 L 129 127 Z M 129 36 "/></clipPath><clipPath xml:id="clip2" id="clip2"><path d="M 171.011719 12.886719 L 246.476562 61.925781 L 203.5625 127.960938 L 128.097656 78.917969 Z M 171.011719 12.886719 "/></clipPath><clipPath xml:id="clip3" id="clip3"><path d="M 171.011719 12.886719 L 246.476562 61.925781 L 203.5625 127.960938 L 128.097656 78.917969 Z M 171.011719 12.886719 "/></clipPath></defs><g xml:id="surface1" id="surface1"><g style="fill:rgb(100%,0%,0%);fill-opacity:1;"><g transform="translate(89.998669, 199.420285)"><path style="stroke:none;" d="M 1.578125 0 L 26.46875 0 L 26.46875 -7.367188 L 9.699219 -7.367188 L 9.699219 -45.117188 L 1.578125 -45.117188 Z M 1.578125 0 "/></g></g><g style="fill:rgb(100%,0%,0%);fill-opacity:1;"><g transform="translate(123.382742, 199.420285)"><path style="stroke:none;" d="M 1.578125 0 L 32.257812 0 L 32.257812 -45.117188 L 24.136719 -45.117188 L 24.136719 -8.195312 L 9.699219 -8.195312 L 9.699219 -45.117188 L 1.578125 -45.117188 Z M 1.578125 0 "/></g></g><g style="fill:rgb(100%,0%,0%);fill-opacity:1;"><g transform="translate(162.556255, 199.420285)"><path style="stroke:none;" d="M 1.578125 0 L 31.957031 0 L 31.957031 -8.121094 L 9.699219 -8.121094 L 9.699219 -36.996094 L 31.957031 -36.996094 L 31.957031 -45.117188 L 1.578125 -45.117188 Z M 1.578125 0 "/></g></g><g style="fill:rgb(100%,0%,0%);fill-opacity:1;"><g transform="translate(201.429017, 199.420285)"><path style="stroke:none;" d="M 1.578125 0 L 9.699219 0 L 9.699219 -18.648438 L 18.722656 0 L 28.574219 0 L 17.519531 -22.785156 L 30.605469 -45.117188 L 20 -45.117188 L 9.699219 -23.308594 L 9.699219 -45.117188 L 1.578125 -45.117188 Z M 1.578125 0 "/></g></g><g style="fill:rgb(100%,0%,0%);fill-opacity:1;"><g transform="translate(238.948401, 199.420285)"><path style="stroke:none;" d="M 15.941406 0 L 24.0625 0 L 24.0625 -19.550781 L 38.425781 -45.117188 L 26.917969 -45.117188 L 20 -28.574219 L 13.082031 -45.117188 L 1.578125 -45.117188 L 15.941406 -19.550781 Z M 15.941406 0 "/></g></g><g style="fill:rgb(0%,100%,100%);fill-opacity:1;"><g transform="translate(96.043591, 198.0247)"><path style="stroke:none;" d="M 1.578125 0 L 26.46875 0 L 26.46875 -7.367188 L 9.699219 -7.367188 L 9.699219 -45.117188 L 1.578125 -45.117188 Z M 1.578125 0 "/></g></g><g style="fill:rgb(0%,100%,100%);fill-opacity:1;"><g transform="translate(129.427663, 198.0247)"><path style="stroke:none;" d="M 1.578125 0 L 32.257812 0 L 32.257812 -45.117188 L 24.136719 -45.117188 L 24.136719 -8.195312 L 9.699219 -8.195312 L 9.699219 -45.117188 L 1.578125 -45.117188 Z M 1.578125 0 "/></g></g><g style="fill:rgb(0%,100%,100%);fill-opacity:1;"><g transform="translate(168.601176, 198.0247)"><path style="stroke:none;" d="M 1.578125 0 L 31.957031 0 L 31.957031 -8.121094 L 9.699219 -8.121094 L 9.699219 -36.996094 L 31.957031 -36.996094 L 31.957031 -45.117188 L 1.578125 -45.117188 Z M 1.578125 0 "/></g></g><g style="fill:rgb(0%,100%,100%);fill-opacity:1;"><g transform="translate(207.473938, 198.0247)"><path style="stroke:none;" d="M 1.578125 0 L 9.699219 0 L 9.699219 -18.648438 L 18.722656 0 L 28.574219 0 L 17.519531 -22.785156 L 30.605469 -45.117188 L 20 -45.117188 L 9.699219 -23.308594 L 9.699219 -45.117188 L 1.578125 -45.117188 Z M 1.578125 0 "/></g></g><g style="fill:rgb(0%,100%,100%);fill-opacity:1;"><g transform="translate(244.993322, 198.0247)"><path style="stroke:none;" d="M 15.941406 0 L 24.0625 0 L 24.0625 -19.550781 L 38.425781 -45.117188 L 26.917969 -45.117188 L 20 -28.574219 L 13.082031 -45.117188 L 1.578125 -45.117188 L 15.941406 -19.550781 Z M 15.941406 0 "/></g></g><g style="fill:rgb(0%,61.959839%,49.798584%);fill-opacity:1;"><g transform="translate(93.02113, 198.722493)"><path style="stroke:none;" d="M 1.578125 0 L 26.46875 0 L 26.46875 -7.367188 L 9.699219 -7.367188 L 9.699219 -45.117188 L 1.578125 -45.117188 Z M 1.578125 0 "/></g></g><g style="fill:rgb(0%,61.959839%,49.798584%);fill-opacity:1;"><g transform="translate(126.405203, 198.722493)"><path style="stroke:none;" d="M 1.578125 0 L 32.257812 0 L 32.257812 -45.117188 L 24.136719 -45.117188 L 24.136719 -8.195312 L 9.699219 -8.195312 L 9.699219 -45.117188 L 1.578125 -45.117188 Z M 1.578125 0 "/></g></g><g style="fill:rgb(0%,61.959839%,49.798584%);fill-opacity:1;"><g transform="translate(165.578716, 198.722493)"><path style="stroke:none;" d="M 1.578125 0 L 31.957031 0 L 31.957031 -8.121094 L 9.699219 -8.121094 L 9.699219 -36.996094 L 31.957031 -36.996094 L 31.957031 -45.117188 L 1.578125 -45.117188 Z M 1.578125 0 "/></g></g><g style="fill:rgb(0%,61.959839%,49.798584%);fill-opacity:1;"><g transform="translate(204.451478, 198.722493)"><path style="stroke:none;" d="M 1.578125 0 L 9.699219 0 L 9.699219 -18.648438 L 18.722656 0 L 28.574219 0 L 17.519531 -22.785156 L 30.605469 -45.117188 L 20 -45.117188 L 9.699219 -23.308594 L 9.699219 -45.117188 L 1.578125 -45.117188 Z M 1.578125 0 "/></g></g><g style="fill:rgb(0%,61.959839%,49.798584%);fill-opacity:1;"><g transform="translate(241.970861, 198.722493)"><path style="stroke:none;" d="M 15.941406 0 L 24.0625 0 L 24.0625 -19.550781 L 38.425781 -45.117188 L 26.917969 -45.117188 L 20 -28.574219 L 13.082031 -45.117188 L 1.578125 -45.117188 L 15.941406 -19.550781 Z M 15.941406 0 "/></g></g><g style="fill:rgb(100%,0%,0%);fill-opacity:1;"><g transform="translate(66.432265, 255.670282)"><path style="stroke:none;" d="M 1.578125 0 L 9.699219 0 L 9.699219 -18.195312 L 24.136719 -18.195312 L 24.136719 0 L 32.257812 0 L 32.257812 -45.117188 L 1.578125 -45.117188 Z M 9.699219 -26.316406 L 9.699219 -36.996094 L 24.136719 -36.996094 L 24.136719 -26.316406 Z M 9.699219 -26.316406 "/></g></g><g style="fill:rgb(100%,0%,0%);fill-opacity:1;"><g transform="translate(105.605777, 255.670282)"><path style="stroke:none;" d="M 1.578125 0 L 9.699219 0 L 9.699219 -18.195312 L 19.25 -18.195312 L 23.386719 0 L 32.410156 0 L 27.898438 -18.195312 L 35.941406 -18.195312 L 35.941406 -45.117188 L 1.578125 -45.117188 Z M 9.699219 -26.316406 L 9.699219 -36.996094 L 27.820312 -36.996094 L 27.820312 -26.316406 Z M 9.699219 -26.316406 "/></g></g><g style="fill:rgb(100%,0%,0%);fill-opacity:1;"><g transform="translate(148.538663, 255.670282)"><path style="stroke:none;" d="M 1.578125 0 L 31.957031 0 L 31.957031 -8.121094 L 9.699219 -8.121094 L 9.699219 -36.996094 L 31.957031 -36.996094 L 31.957031 -45.117188 L 1.578125 -45.117188 Z M 1.578125 0 "/></g></g><g style="fill:rgb(100%,0%,0%);fill-opacity:1;"><g transform="translate(187.411425, 255.670282)"><path style="stroke:none;" d="M 1.578125 0 L 9.699219 0 L 9.699219 -18.195312 L 24.136719 -18.195312 L 24.136719 0 L 32.257812 0 L 32.257812 -45.117188 L 1.578125 -45.117188 Z M 9.699219 -26.316406 L 9.699219 -36.996094 L 24.136719 -36.996094 L 24.136719 -26.316406 Z M 9.699219 -26.316406 "/></g></g><g style="fill:rgb(100%,0%,0%);fill-opacity:1;"><g transform="translate(226.584938, 255.670282)"><path style="stroke:none;" d="M 1.578125 0 L 35.492188 0 L 35.492188 -45.117188 L 1.578125 -45.117188 L 1.578125 -36.996094 L 8.570312 -36.996094 L 8.570312 -8.195312 L 1.578125 -8.195312 Z M 16.691406 -8.195312 L 16.691406 -36.996094 L 27.371094 -36.996094 L 27.371094 -8.195312 Z M 16.691406 -8.195312 "/></g></g><g style="fill:rgb(100%,0%,0%);fill-opacity:1;"><g transform="translate(268.991509, 255.670282)"><path style="stroke:none;" d="M 1.578125 0 L 31.957031 0 L 31.957031 -8.121094 L 9.699219 -8.121094 L 9.699219 -18.046875 L 25.265625 -18.046875 L 25.265625 -26.242188 L 9.699219 -26.242188 L 9.699219 -36.996094 L 31.957031 -36.996094 L 31.957031 -45.117188 L 1.578125 -45.117188 Z M 1.578125 0 "/></g></g><g style="fill:rgb(0%,100%,100%);fill-opacity:1;"><g transform="translate(72.477186, 254.274696)"><path style="stroke:none;" d="M 1.578125 0 L 9.699219 0 L 9.699219 -18.195312 L 24.136719 -18.195312 L 24.136719 0 L 32.257812 0 L 32.257812 -45.117188 L 1.578125 -45.117188 Z M 9.699219 -26.316406 L 9.699219 -36.996094 L 24.136719 -36.996094 L 24.136719 -26.316406 Z M 9.699219 -26.316406 "/></g></g><g style="fill:rgb(0%,100%,100%);fill-opacity:1;"><g transform="translate(111.650699, 254.274696)"><path style="stroke:none;" d="M 1.578125 0 L 9.699219 0 L 9.699219 -18.195312 L 19.25 -18.195312 L 23.386719 0 L 32.410156 0 L 27.898438 -18.195312 L 35.941406 -18.195312 L 35.941406 -45.117188 L 1.578125 -45.117188 Z M 9.699219 -26.316406 L 9.699219 -36.996094 L 27.820312 -36.996094 L 27.820312 -26.316406 Z M 9.699219 -26.316406 "/></g></g><g style="fill:rgb(0%,100%,100%);fill-opacity:1;"><g transform="translate(154.583584, 254.274696)"><path style="stroke:none;" d="M 1.578125 0 L 31.957031 0 L 31.957031 -8.121094 L 9.699219 -8.121094 L 9.699219 -36.996094 L 31.957031 -36.996094 L 31.957031 -45.117188 L 1.578125 -45.117188 Z M 1.578125 0 "/></g></g><g style="fill:rgb(0%,100%,100%);fill-opacity:1;"><g transform="translate(193.456346, 254.274696)"><path style="stroke:none;" d="M 1.578125 0 L 9.699219 0 L 9.699219 -18.195312 L 24.136719 -18.195312 L 24.136719 0 L 32.257812 0 L 32.257812 -45.117188 L 1.578125 -45.117188 Z M 9.699219 -26.316406 L 9.699219 -36.996094 L 24.136719 -36.996094 L 24.136719 -26.316406 Z M 9.699219 -26.316406 "/></g></g><g style="fill:rgb(0%,100%,100%);fill-opacity:1;"><g transform="translate(232.629859, 254.274696)"><path style="stroke:none;" d="M 1.578125 0 L 35.492188 0 L 35.492188 -45.117188 L 1.578125 -45.117188 L 1.578125 -36.996094 L 8.570312 -36.996094 L 8.570312 -8.195312 L 1.578125 -8.195312 Z M 16.691406 -8.195312 L 16.691406 -36.996094 L 27.371094 -36.996094 L 27.371094 -8.195312 Z M 16.691406 -8.195312 "/></g></g><g style="fill:rgb(0%,100%,100%);fill-opacity:1;"><g transform="translate(275.036431, 254.274696)"><path style="stroke:none;" d="M 1.578125 0 L 31.957031 0 L 31.957031 -8.121094 L 9.699219 -8.121094 L 9.699219 -18.046875 L 25.265625 -18.046875 L 25.265625 -26.242188 L 9.699219 -26.242188 L 9.699219 -36.996094 L 31.957031 -36.996094 L 31.957031 -45.117188 L 1.578125 -45.117188 Z M 1.578125 0 "/></g></g><g style="fill:rgb(0%,61.959839%,49.798584%);fill-opacity:1;"><g transform="translate(69.454725, 254.972489)"><path style="stroke:none;" d="M 1.578125 0 L 9.699219 0 L 9.699219 -18.195312 L 24.136719 -18.195312 L 24.136719 0 L 32.257812 0 L 32.257812 -45.117188 L 1.578125 -45.117188 Z M 9.699219 -26.316406 L 9.699219 -36.996094 L 24.136719 -36.996094 L 24.136719 -26.316406 Z M 9.699219 -26.316406 "/></g></g><g style="fill:rgb(0%,61.959839%,49.798584%);fill-opacity:1;"><g transform="translate(108.628238, 254.972489)"><path style="stroke:none;" d="M 1.578125 0 L 9.699219 0 L 9.699219 -18.195312 L 19.25 -18.195312 L 23.386719 0 L 32.410156 0 L 27.898438 -18.195312 L 35.941406 -18.195312 L 35.941406 -45.117188 L 1.578125 -45.117188 Z M 9.699219 -26.316406 L 9.699219 -36.996094 L 27.820312 -36.996094 L 27.820312 -26.316406 Z M 9.699219 -26.316406 "/></g></g><g style="fill:rgb(0%,61.959839%,49.798584%);fill-opacity:1;"><g transform="translate(151.561124, 254.972489)"><path style="stroke:none;" d="M 1.578125 0 L 31.957031 0 L 31.957031 -8.121094 L 9.699219 -8.121094 L 9.699219 -36.996094 L 31.957031 -36.996094 L 31.957031 -45.117188 L 1.578125 -45.117188 Z M 1.578125 0 "/></g></g><g style="fill:rgb(0%,61.959839%,49.798584%);fill-opacity:1;"><g transform="translate(190.433886, 254.972489)"><path style="stroke:none;" d="M 1.578125 0 L 9.699219 0 L 9.699219 -18.195312 L 24.136719 -18.195312 L 24.136719 0 L 32.257812 0 L 32.257812 -45.117188 L 1.578125 -45.117188 Z M 9.699219 -26.316406 L 9.699219 -36.996094 L 24.136719 -36.996094 L 24.136719 -26.316406 Z M 9.699219 -26.316406 "/></g></g><g style="fill:rgb(0%,61.959839%,49.798584%);fill-opacity:1;"><g transform="translate(229.607399, 254.972489)"><path style="stroke:none;" d="M 1.578125 0 L 35.492188 0 L 35.492188 -45.117188 L 1.578125 -45.117188 L 1.578125 -36.996094 L 8.570312 -36.996094 L 8.570312 -8.195312 L 1.578125 -8.195312 Z M 16.691406 -8.195312 L 16.691406 -36.996094 L 27.371094 -36.996094 L 27.371094 -8.195312 Z M 16.691406 -8.195312 "/></g></g><g style="fill:rgb(0%,61.959839%,49.798584%);fill-opacity:1;"><g transform="translate(272.01397, 254.972489)"><path style="stroke:none;" d="M 1.578125 0 L 31.957031 0 L 31.957031 -8.121094 L 9.699219 -8.121094 L 9.699219 -18.046875 L 25.265625 -18.046875 L 25.265625 -26.242188 L 9.699219 -26.242188 L 9.699219 -36.996094 L 31.957031 -36.996094 L 31.957031 -45.117188 L 1.578125 -45.117188 Z M 1.578125 0 "/></g></g><g clip-rule="nonzero" clip-path="url(#clip1)"><g clip-rule="nonzero" clip-path="url(#clip2)"><g clip-rule="nonzero" clip-path="url(#clip3)"><path style=" stroke:none;fill-rule:nonzero;fill:rgb(0%,61.959839%,49.798584%);fill-opacity:1;" d="M 206.730469 121.636719 L 206.734375 121.632812 L 210.222656 41.070312 L 210.207031 41.054688 C 210.292969 39.507812 209.59375 37.960938 208.207031 37.058594 C 206.964844 36.25 205.46875 36.15625 204.179688 36.65625 L 204.167969 36.648438 L 204.121094 36.671875 C 203.878906 36.769531 203.648438 36.890625 203.421875 37.03125 L 132.558594 73.46875 C 131.769531 73.808594 131.070312 74.378906 130.566406 75.152344 C 129.210938 77.238281 129.789062 80.015625 131.859375 81.359375 L 199.804688 125.515625 C 201.875 126.859375 204.648438 126.261719 206.003906 124.175781 C 206.511719 123.390625 206.746094 122.503906 206.730469 121.636719 Z M 206.730469 121.636719 "/></g></g></g></g></svg>