<?xml version="1.0" encoding="UTF-8"?><svg xmlns="http://www.w3.org/2000/svg" xmlns:xlink="http://www.w3.org/1999/xlink" width="232.5pt" zoomAndPan="magnify" viewBox="0 0 232.5 112.499997" height="112.499997pt" preserveAspectRatio="xMidYMid meet" version="1.2"><defs><g/><clipPath xml:id="clip1" id="clip1"><path d="M 102 28 L 122 28 L 122 50 L 102 50 Z M 102 28 "/></clipPath><clipPath xml:id="clip2" id="clip2"><path d="M 112.300781 22.839844 L 130.496094 34.667969 L 120.300781 50.351562 L 102.105469 38.527344 Z M 112.300781 22.839844 "/></clipPath><clipPath xml:id="clip3" id="clip3"><path d="M 112.300781 22.839844 L 130.496094 34.667969 L 120.300781 50.351562 L 102.105469 38.527344 Z M 112.300781 22.839844 "/></clipPath></defs><g xml:id="surface1" id="surface1"><g style="fill:rgb(100%,0%,0%);fill-opacity:1;"><g transform="translate(62.008209, 67.50634)"><path style="stroke:none;" d="M 0.378906 0 L 6.339844 0 L 6.339844 -1.765625 L 2.324219 -1.765625 L 2.324219 -10.804688 L 0.378906 -10.804688 Z M 0.378906 0 "/></g></g><g style="fill:rgb(100%,0%,0%);fill-opacity:1;"><g transform="translate(70.002088, 67.50634)"><path style="stroke:none;" d="M 0.378906 0 L 7.722656 0 L 7.722656 -10.804688 L 5.78125 -10.804688 L 5.78125 -1.960938 L 2.324219 -1.960938 L 2.324219 -10.804688 L 0.378906 -10.804688 Z M 0.378906 0 "/></g></g><g style="fill:rgb(100%,0%,0%);fill-opacity:1;"><g transform="translate(79.38226, 67.50634)"><path style="stroke:none;" d="M 0.378906 0 L 7.652344 0 L 7.652344 -1.945312 L 2.324219 -1.945312 L 2.324219 -8.859375 L 7.652344 -8.859375 L 7.652344 -10.804688 L 0.378906 -10.804688 Z M 0.378906 0 "/></g></g><g style="fill:rgb(100%,0%,0%);fill-opacity:1;"><g transform="translate(88.690415, 67.50634)"><path style="stroke:none;" d="M 0.378906 0 L 2.324219 0 L 2.324219 -4.464844 L 4.484375 0 L 6.84375 0 L 4.195312 -5.457031 L 7.328125 -10.804688 L 4.789062 -10.804688 L 2.324219 -5.582031 L 2.324219 -10.804688 L 0.378906 -10.804688 Z M 0.378906 0 "/></g></g><g style="fill:rgb(100%,0%,0%);fill-opacity:1;"><g transform="translate(97.674502, 67.50634)"><path style="stroke:none;" d="M 3.816406 0 L 5.761719 0 L 5.761719 -4.679688 L 9.199219 -10.804688 L 6.445312 -10.804688 L 4.789062 -6.84375 L 3.132812 -10.804688 L 0.378906 -10.804688 L 3.816406 -4.679688 Z M 3.816406 0 "/></g></g><g style="fill:rgb(100%,0%,0%);fill-opacity:1;"><g transform="translate(108.530985, 67.50634)"><path style="stroke:none;" d=""/></g></g><g style="fill:rgb(100%,0%,0%);fill-opacity:1;"><g transform="translate(112.510023, 67.50634)"><path style="stroke:none;" d="M 0.378906 0 L 2.324219 0 L 2.324219 -4.355469 L 5.78125 -4.355469 L 5.78125 0 L 7.722656 0 L 7.722656 -10.804688 L 0.378906 -10.804688 Z M 2.324219 -6.300781 L 2.324219 -8.859375 L 5.78125 -8.859375 L 5.78125 -6.300781 Z M 2.324219 -6.300781 "/></g></g><g style="fill:rgb(100%,0%,0%);fill-opacity:1;"><g transform="translate(121.890194, 67.50634)"><path style="stroke:none;" d="M 0.378906 0 L 2.324219 0 L 2.324219 -4.355469 L 4.609375 -4.355469 L 5.601562 0 L 7.761719 0 L 6.679688 -4.355469 L 8.605469 -4.355469 L 8.605469 -10.804688 L 0.378906 -10.804688 Z M 2.324219 -6.300781 L 2.324219 -8.859375 L 6.660156 -8.859375 L 6.660156 -6.300781 Z M 2.324219 -6.300781 "/></g></g><g style="fill:rgb(100%,0%,0%);fill-opacity:1;"><g transform="translate(132.170557, 67.50634)"><path style="stroke:none;" d="M 0.378906 0 L 7.652344 0 L 7.652344 -1.945312 L 2.324219 -1.945312 L 2.324219 -8.859375 L 7.652344 -8.859375 L 7.652344 -10.804688 L 0.378906 -10.804688 Z M 0.378906 0 "/></g></g><g style="fill:rgb(100%,0%,0%);fill-opacity:1;"><g transform="translate(141.478713, 67.50634)"><path style="stroke:none;" d="M 0.378906 0 L 2.324219 0 L 2.324219 -4.355469 L 5.78125 -4.355469 L 5.78125 0 L 7.722656 0 L 7.722656 -10.804688 L 0.378906 -10.804688 Z M 2.324219 -6.300781 L 2.324219 -8.859375 L 5.78125 -8.859375 L 5.78125 -6.300781 Z M 2.324219 -6.300781 "/></g></g><g style="fill:rgb(100%,0%,0%);fill-opacity:1;"><g transform="translate(150.858884, 67.50634)"><path style="stroke:none;" d="M 0.378906 0 L 8.5 0 L 8.5 -10.804688 L 0.378906 -10.804688 L 0.378906 -8.859375 L 2.050781 -8.859375 L 2.050781 -1.960938 L 0.378906 -1.960938 Z M 3.996094 -1.960938 L 3.996094 -8.859375 L 6.554688 -8.859375 L 6.554688 -1.960938 Z M 3.996094 -1.960938 "/></g></g><g style="fill:rgb(100%,0%,0%);fill-opacity:1;"><g transform="translate(161.01322, 67.50634)"><path style="stroke:none;" d="M 0.378906 0 L 7.652344 0 L 7.652344 -1.945312 L 2.324219 -1.945312 L 2.324219 -4.320312 L 6.050781 -4.320312 L 6.050781 -6.285156 L 2.324219 -6.285156 L 2.324219 -8.859375 L 7.652344 -8.859375 L 7.652344 -10.804688 L 0.378906 -10.804688 Z M 0.378906 0 "/></g></g><g style="fill:rgb(0%,100%,100%);fill-opacity:1;"><g transform="translate(63.455677, 67.172164)"><path style="stroke:none;" d="M 0.378906 0 L 6.339844 0 L 6.339844 -1.765625 L 2.324219 -1.765625 L 2.324219 -10.804688 L 0.378906 -10.804688 Z M 0.378906 0 "/></g></g><g style="fill:rgb(0%,100%,100%);fill-opacity:1;"><g transform="translate(71.449556, 67.172164)"><path style="stroke:none;" d="M 0.378906 0 L 7.722656 0 L 7.722656 -10.804688 L 5.78125 -10.804688 L 5.78125 -1.960938 L 2.324219 -1.960938 L 2.324219 -10.804688 L 0.378906 -10.804688 Z M 0.378906 0 "/></g></g><g style="fill:rgb(0%,100%,100%);fill-opacity:1;"><g transform="translate(80.829727, 67.172164)"><path style="stroke:none;" d="M 0.378906 0 L 7.652344 0 L 7.652344 -1.945312 L 2.324219 -1.945312 L 2.324219 -8.859375 L 7.652344 -8.859375 L 7.652344 -10.804688 L 0.378906 -10.804688 Z M 0.378906 0 "/></g></g><g style="fill:rgb(0%,100%,100%);fill-opacity:1;"><g transform="translate(90.137883, 67.172164)"><path style="stroke:none;" d="M 0.378906 0 L 2.324219 0 L 2.324219 -4.464844 L 4.484375 0 L 6.84375 0 L 4.195312 -5.457031 L 7.328125 -10.804688 L 4.789062 -10.804688 L 2.324219 -5.582031 L 2.324219 -10.804688 L 0.378906 -10.804688 Z M 0.378906 0 "/></g></g><g style="fill:rgb(0%,100%,100%);fill-opacity:1;"><g transform="translate(99.12197, 67.172164)"><path style="stroke:none;" d="M 3.816406 0 L 5.761719 0 L 5.761719 -4.679688 L 9.199219 -10.804688 L 6.445312 -10.804688 L 4.789062 -6.84375 L 3.132812 -10.804688 L 0.378906 -10.804688 L 3.816406 -4.679688 Z M 3.816406 0 "/></g></g><g style="fill:rgb(0%,100%,100%);fill-opacity:1;"><g transform="translate(109.978452, 67.172164)"><path style="stroke:none;" d=""/></g></g><g style="fill:rgb(0%,100%,100%);fill-opacity:1;"><g transform="translate(113.957491, 67.172164)"><path style="stroke:none;" d="M 0.378906 0 L 2.324219 0 L 2.324219 -4.355469 L 5.78125 -4.355469 L 5.78125 0 L 7.722656 0 L 7.722656 -10.804688 L 0.378906 -10.804688 Z M 2.324219 -6.300781 L 2.324219 -8.859375 L 5.78125 -8.859375 L 5.78125 -6.300781 Z M 2.324219 -6.300781 "/></g></g><g style="fill:rgb(0%,100%,100%);fill-opacity:1;"><g transform="translate(123.337662, 67.172164)"><path style="stroke:none;" d="M 0.378906 0 L 2.324219 0 L 2.324219 -4.355469 L 4.609375 -4.355469 L 5.601562 0 L 7.761719 0 L 6.679688 -4.355469 L 8.605469 -4.355469 L 8.605469 -10.804688 L 0.378906 -10.804688 Z M 2.324219 -6.300781 L 2.324219 -8.859375 L 6.660156 -8.859375 L 6.660156 -6.300781 Z M 2.324219 -6.300781 "/></g></g><g style="fill:rgb(0%,100%,100%);fill-opacity:1;"><g transform="translate(133.618025, 67.172164)"><path style="stroke:none;" d="M 0.378906 0 L 7.652344 0 L 7.652344 -1.945312 L 2.324219 -1.945312 L 2.324219 -8.859375 L 7.652344 -8.859375 L 7.652344 -10.804688 L 0.378906 -10.804688 Z M 0.378906 0 "/></g></g><g style="fill:rgb(0%,100%,100%);fill-opacity:1;"><g transform="translate(142.926181, 67.172164)"><path style="stroke:none;" d="M 0.378906 0 L 2.324219 0 L 2.324219 -4.355469 L 5.78125 -4.355469 L 5.78125 0 L 7.722656 0 L 7.722656 -10.804688 L 0.378906 -10.804688 Z M 2.324219 -6.300781 L 2.324219 -8.859375 L 5.78125 -8.859375 L 5.78125 -6.300781 Z M 2.324219 -6.300781 "/></g></g><g style="fill:rgb(0%,100%,100%);fill-opacity:1;"><g transform="translate(152.306352, 67.172164)"><path style="stroke:none;" d="M 0.378906 0 L 8.5 0 L 8.5 -10.804688 L 0.378906 -10.804688 L 0.378906 -8.859375 L 2.050781 -8.859375 L 2.050781 -1.960938 L 0.378906 -1.960938 Z M 3.996094 -1.960938 L 3.996094 -8.859375 L 6.554688 -8.859375 L 6.554688 -1.960938 Z M 3.996094 -1.960938 "/></g></g><g style="fill:rgb(0%,100%,100%);fill-opacity:1;"><g transform="translate(162.460688, 67.172164)"><path style="stroke:none;" d="M 0.378906 0 L 7.652344 0 L 7.652344 -1.945312 L 2.324219 -1.945312 L 2.324219 -4.320312 L 6.050781 -4.320312 L 6.050781 -6.285156 L 2.324219 -6.285156 L 2.324219 -8.859375 L 7.652344 -8.859375 L 7.652344 -10.804688 L 0.378906 -10.804688 Z M 0.378906 0 "/></g></g><g style="fill:rgb(0%,61.959839%,49.798584%);fill-opacity:1;"><g transform="translate(62.731943, 67.339253)"><path style="stroke:none;" d="M 0.378906 0 L 6.339844 0 L 6.339844 -1.765625 L 2.324219 -1.765625 L 2.324219 -10.804688 L 0.378906 -10.804688 Z M 0.378906 0 "/></g></g><g style="fill:rgb(0%,61.959839%,49.798584%);fill-opacity:1;"><g transform="translate(70.725822, 67.339253)"><path style="stroke:none;" d="M 0.378906 0 L 7.722656 0 L 7.722656 -10.804688 L 5.78125 -10.804688 L 5.78125 -1.960938 L 2.324219 -1.960938 L 2.324219 -10.804688 L 0.378906 -10.804688 Z M 0.378906 0 "/></g></g><g style="fill:rgb(0%,61.959839%,49.798584%);fill-opacity:1;"><g transform="translate(80.105993, 67.339253)"><path style="stroke:none;" d="M 0.378906 0 L 7.652344 0 L 7.652344 -1.945312 L 2.324219 -1.945312 L 2.324219 -8.859375 L 7.652344 -8.859375 L 7.652344 -10.804688 L 0.378906 -10.804688 Z M 0.378906 0 "/></g></g><g style="fill:rgb(0%,61.959839%,49.798584%);fill-opacity:1;"><g transform="translate(89.414149, 67.339253)"><path style="stroke:none;" d="M 0.378906 0 L 2.324219 0 L 2.324219 -4.464844 L 4.484375 0 L 6.84375 0 L 4.195312 -5.457031 L 7.328125 -10.804688 L 4.789062 -10.804688 L 2.324219 -5.582031 L 2.324219 -10.804688 L 0.378906 -10.804688 Z M 0.378906 0 "/></g></g><g style="fill:rgb(0%,61.959839%,49.798584%);fill-opacity:1;"><g transform="translate(98.398236, 67.339253)"><path style="stroke:none;" d="M 3.816406 0 L 5.761719 0 L 5.761719 -4.679688 L 9.199219 -10.804688 L 6.445312 -10.804688 L 4.789062 -6.84375 L 3.132812 -10.804688 L 0.378906 -10.804688 L 3.816406 -4.679688 Z M 3.816406 0 "/></g></g><g style="fill:rgb(0%,61.959839%,49.798584%);fill-opacity:1;"><g transform="translate(109.254719, 67.339253)"><path style="stroke:none;" d=""/></g></g><g style="fill:rgb(0%,61.959839%,49.798584%);fill-opacity:1;"><g transform="translate(113.233757, 67.339253)"><path style="stroke:none;" d="M 0.378906 0 L 2.324219 0 L 2.324219 -4.355469 L 5.78125 -4.355469 L 5.78125 0 L 7.722656 0 L 7.722656 -10.804688 L 0.378906 -10.804688 Z M 2.324219 -6.300781 L 2.324219 -8.859375 L 5.78125 -8.859375 L 5.78125 -6.300781 Z M 2.324219 -6.300781 "/></g></g><g style="fill:rgb(0%,61.959839%,49.798584%);fill-opacity:1;"><g transform="translate(122.613928, 67.339253)"><path style="stroke:none;" d="M 0.378906 0 L 2.324219 0 L 2.324219 -4.355469 L 4.609375 -4.355469 L 5.601562 0 L 7.761719 0 L 6.679688 -4.355469 L 8.605469 -4.355469 L 8.605469 -10.804688 L 0.378906 -10.804688 Z M 2.324219 -6.300781 L 2.324219 -8.859375 L 6.660156 -8.859375 L 6.660156 -6.300781 Z M 2.324219 -6.300781 "/></g></g><g style="fill:rgb(0%,61.959839%,49.798584%);fill-opacity:1;"><g transform="translate(132.894291, 67.339253)"><path style="stroke:none;" d="M 0.378906 0 L 7.652344 0 L 7.652344 -1.945312 L 2.324219 -1.945312 L 2.324219 -8.859375 L 7.652344 -8.859375 L 7.652344 -10.804688 L 0.378906 -10.804688 Z M 0.378906 0 "/></g></g><g style="fill:rgb(0%,61.959839%,49.798584%);fill-opacity:1;"><g transform="translate(142.202447, 67.339253)"><path style="stroke:none;" d="M 0.378906 0 L 2.324219 0 L 2.324219 -4.355469 L 5.78125 -4.355469 L 5.78125 0 L 7.722656 0 L 7.722656 -10.804688 L 0.378906 -10.804688 Z M 2.324219 -6.300781 L 2.324219 -8.859375 L 5.78125 -8.859375 L 5.78125 -6.300781 Z M 2.324219 -6.300781 "/></g></g><g style="fill:rgb(0%,61.959839%,49.798584%);fill-opacity:1;"><g transform="translate(151.582618, 67.339253)"><path style="stroke:none;" d="M 0.378906 0 L 8.5 0 L 8.5 -10.804688 L 0.378906 -10.804688 L 0.378906 -8.859375 L 2.050781 -8.859375 L 2.050781 -1.960938 L 0.378906 -1.960938 Z M 3.996094 -1.960938 L 3.996094 -8.859375 L 6.554688 -8.859375 L 6.554688 -1.960938 Z M 3.996094 -1.960938 "/></g></g><g style="fill:rgb(0%,61.959839%,49.798584%);fill-opacity:1;"><g transform="translate(161.736954, 67.339253)"><path style="stroke:none;" d="M 0.378906 0 L 7.652344 0 L 7.652344 -1.945312 L 2.324219 -1.945312 L 2.324219 -4.320312 L 6.050781 -4.320312 L 6.050781 -6.285156 L 2.324219 -6.285156 L 2.324219 -8.859375 L 7.652344 -8.859375 L 7.652344 -10.804688 L 0.378906 -10.804688 Z M 0.378906 0 "/></g></g><g clip-rule="nonzero" clip-path="url(#clip1)"><g clip-rule="nonzero" clip-path="url(#clip2)"><g clip-rule="nonzero" clip-path="url(#clip3)"><path style=" stroke:none;fill-rule:nonzero;fill:rgb(0%,61.959839%,49.798584%);fill-opacity:1;" d="M 121.050781 48.847656 L 121.054688 48.847656 L 121.757812 29.628906 L 121.753906 29.625 C 121.773438 29.257812 121.601562 28.886719 121.269531 28.671875 C 120.96875 28.476562 120.609375 28.449219 120.300781 28.566406 L 120.296875 28.566406 L 120.285156 28.570312 C 120.230469 28.59375 120.171875 28.621094 120.121094 28.65625 L 103.167969 37.234375 C 102.980469 37.3125 102.8125 37.449219 102.691406 37.632812 C 102.371094 38.128906 102.515625 38.792969 103.011719 39.117188 L 119.394531 49.761719 C 119.894531 50.085938 120.558594 49.949219 120.882812 49.453125 C 121.003906 49.265625 121.058594 49.054688 121.050781 48.847656 Z M 121.050781 48.847656 "/></g></g></g></g></svg>